<?xml version="1.0" encoding="UTF-8" standalone="no"?>
<svg
   xmlns:dc="http://purl.org/dc/elements/1.1/"
   xmlns:cc="http://creativecommons.org/ns#"
   xmlns:rdf="http://www.w3.org/1999/02/22-rdf-syntax-ns#"
   xmlns:svg="http://www.w3.org/2000/svg"
   xmlns="http://www.w3.org/2000/svg"
   xml:space="preserve"
   style="enable-background:new 0 0 425.2 283.46;"
   viewBox="0 0 425.2 283.46"
   y="0px"
   x="0px"
   id="Layer_1"
   version="1.1"><metadata
   id="metadata155"><rdf:RDF><cc:Work
       rdf:about=""><dc:format>image/svg+xml</dc:format><dc:type
         rdf:resource="http://purl.org/dc/dcmitype/StillImage" /></cc:Work></rdf:RDF></metadata><defs
   id="defs153" />
<style
   id="style2"
   type="text/css">
	.st0{fill:#010202;}
</style>
<g
   id="g148">
	<g
   id="g140">
		<g
   id="g88">
			<g
   id="g8">
				<g
   id="g6">
					<path
   id="path4"
   d="M299.2,110.36c0.06-0.1,0.08-0.18,0.05-0.2c-0.02-0.02-0.09-0.01-0.23,0.02       c-7.28,1.78-14.41,3.52-21.4,5.23c-0.24,0.38-0.42,0.73-0.55,1.06c7.79-2.04,15.02-3.88,21.7-5.5       C298.87,110.9,299.01,110.69,299.2,110.36z"
   class="st0" />
				</g>
			</g>
			<g
   id="g14">
				<g
   id="g12">
					<path
   id="path10"
   d="M160.56,122.96c0.27,0.03,0.41,0,0.48-0.14c0.06-0.12,0.17-0.15,0.33-0.16c0.26,0.06,0.63,0.87,1.04,2.5       c0.43,1.63,0.6,2.71,0.53,3.25c-0.04,0.34,0.01,0.52,0.13,0.53c0.14,0.02,0.33-0.13,0.57-0.5c0.38-0.52,0.76-1.43,1.15-2.76       c0.96-3.01,1.72-4.49,2.35-4.44c0.31,0.06,0.55,0.27,0.79,0.69c0.22,0.4,0.37,0.61,0.44,0.6c0.21,0.05,0.41-0.15,0.61-0.61       c0.13-0.3,0.24-0.59,0.27-0.8c0.03-0.27-0.09-0.65-0.37-1.13c-0.3-0.56-0.63-0.84-0.99-0.91c-0.72-0.07-1.49,0.58-2.27,1.98       c-0.83,2.02-1.36,3.5-1.63,4.53c-0.1,0.18-0.16,0.28-0.16,0.3c-0.03,0.05-0.05,0.04-0.07-0.01c0-0.02-0.01-0.12-0.01-0.32       c-0.08-1.74-0.42-3.18-1.01-4.34c-0.57-1.16-1.32-1.79-2.2-1.93c-0.1,0.01-0.38,0.27-0.81,0.86c-0.44,0.59-0.67,0.93-0.69,1.02       c-0.03,0.24,0.14,0.61,0.53,1.05C159.99,122.69,160.32,122.93,160.56,122.96z"
   class="st0" />
				</g>
			</g>
			<g
   id="g20">
				<g
   id="g18">
					<path
   id="path16"
   d="M179.18,139.44c0.99,0.12,1.83-0.98,2.55-3.28c0.04-0.09,0.05-0.19,0.03-0.24       c0.01-0.05-0.02-0.05-0.07-0.03c-0.06,0.04-0.11,0.11-0.2,0.2c-0.65,0.93-1.22,1.35-1.65,1.3c-0.75-0.09-1.02-0.82-0.86-2.15       c0.12-1,0.77-2.67,1.91-5.01c0.26-0.51,0.4-0.84,0.41-0.96c0-0.02-0.02-0.03-0.02-0.03c-0.08,0.01-0.28,0.28-0.66,0.83       c-1.52,2.23-2.42,4.41-2.69,6.57C177.73,138.37,178.15,139.31,179.18,139.44z"
   class="st0" />
				</g>
			</g>
			<g
   id="g26">
				<g
   id="g24">
					<path
   id="path22"
   d="M241.47,134.18c0.11,0.01,0.26-0.1,0.45-0.39c0.3-0.41,0.6-1.13,0.91-2.18c0.76-2.38,1.36-3.55,1.86-3.51       c0.24,0.05,0.43,0.21,0.62,0.54c0.17,0.31,0.29,0.48,0.35,0.47c0.17,0.04,0.32-0.12,0.48-0.49c0.11-0.24,0.19-0.46,0.21-0.63       c0.03-0.21-0.07-0.52-0.3-0.9c-0.24-0.44-0.5-0.67-0.78-0.72c-0.57-0.05-1.17,0.46-1.79,1.57c-0.66,1.59-1.07,2.77-1.29,3.58       c-0.08,0.15-0.12,0.22-0.13,0.24c-0.02,0.04-0.04,0.03-0.06-0.01c0-0.02-0.01-0.1-0.01-0.25c-0.06-1.37-0.33-2.52-0.8-3.43       c-0.45-0.91-1.04-1.42-1.74-1.52c-0.08,0.01-0.3,0.22-0.64,0.68c-0.35,0.46-0.53,0.73-0.54,0.81       c-0.02,0.19,0.11,0.48,0.42,0.83c0.32,0.37,0.59,0.56,0.78,0.58c0.21,0.03,0.33,0,0.38-0.11c0.05-0.09,0.13-0.12,0.26-0.12       c0.21,0.04,0.5,0.68,0.82,1.97c0.34,1.29,0.47,2.14,0.42,2.56C241.33,134.02,241.37,134.17,241.47,134.18z"
   class="st0" />
				</g>
			</g>
			<g
   id="g32">
				<g
   id="g30">
					<path
   id="path28"
   d="M235.42,122.85c-0.05,0.42-0.06,0.64-0.02,0.64c0.06,0.01,0.18-0.17,0.33-0.5       c0.45-0.84,0.6-1.58,0.49-2.24c1.24,0.9,2.7,1.43,4.34,1.63c3.01,0.38,6.2-0.06,9.62-1.33c0.34-0.11,0.64-0.17,0.87-0.14       c0.32,0.04,0.53,0.24,0.62,0.62c-0.43,0.35-0.86,0.73-1.27,1.09c-0.72,0.65-1.26,1.3-1.63,1.98c-0.15,0.29-0.25,0.48-0.26,0.53       c0,0.04,0,0.04,0.01,0.04c0.08,0.01,0.34-0.23,0.82-0.74c0.31-0.31,0.87-0.84,1.7-1.62c0.61-0.55,0.97-0.95,1.14-1.22       c0.24-0.36,0.38-0.75,0.43-1.12c0.09-0.71-0.23-1.1-0.94-1.19c-0.3-0.04-0.98,0.11-2.04,0.46c-1.35,0.45-2.51,0.76-3.47,0.91       c-1.63,0.28-3.3,0.33-4.99,0.1c-1.6-0.18-3.04-0.71-4.32-1.59c-0.43-0.27-0.83-0.61-1.24-1.03c-0.33-0.29-0.51-0.45-0.54-0.48       c-0.27-0.01-0.51,0.35-0.74,1.12c0.64,1.25,0.96,1.91,0.99,1.99C235.48,121.37,235.51,122.06,235.42,122.85z"
   class="st0" />
				</g>
			</g>
			<g
   id="g38">
				<g
   id="g36">
					<path
   id="path34"
   d="M130.59,138.43c0.18,0.02,0.34-0.1,0.55-0.37l2.28-3.61c0.4,0.52,1.27,1.4,2.67,2.63       c1.4,1.19,2.19,1.8,2.4,1.86c0.18-0.01,0.34-0.1,0.55-0.37l2.82-4.45l0.05-0.43c-1.74-1.42-3.42-2.94-5.03-4.52       c-0.19-0.21-0.41-0.16-0.63,0.18c-0.77,0.96-1.57,2.17-2.39,3.63c-1.83-1.54-3.46-2.98-4.87-4.36       c-0.2-0.17-0.42-0.12-0.63,0.17c-1.88,2.39-2.91,4-3.01,4.83c-0.03,0.21,0.81,1.05,2.43,2.52       C129.42,137.63,130.37,138.4,130.59,138.43z"
   class="st0" />
				</g>
			</g>
			<g
   id="g44">
				<g
   id="g42">
					<path
   id="path40"
   d="M172.95,157.42c0.8-0.96,1.21-1.5,1.25-1.64c-0.01-0.12-0.07-0.23-0.25-0.38l-2.99-1.93l-0.29-0.04       c-0.95,1.19-1.97,2.34-3.04,3.44c-0.14,0.13-0.11,0.28,0.12,0.43c0.64,0.52,1.46,1.07,2.44,1.64c-1.03,1.25-2,2.36-2.93,3.33       c-0.11,0.13-0.08,0.29,0.12,0.43c1.6,1.29,2.69,1.99,3.24,2.06c0.14,0.02,0.7-0.55,1.69-1.66c0.99-1.13,1.51-1.78,1.53-1.92       c0.01-0.12-0.07-0.23-0.25-0.38l-2.42-1.56C171.54,158.97,172.12,158.38,172.95,157.42z"
   class="st0" />
				</g>
			</g>
			<g
   id="g50">
				<g
   id="g48">
					<path
   id="path46"
   d="M219.2,163.22c-1.93-1.71-3.05-2.62-3.35-2.66c-0.17-0.02-0.36,0.13-0.61,0.44l-3.37,5.22       c-0.12,0.24-0.14,0.41-0.06,0.47c2.09,1.73,4.06,3.48,5.96,5.35c0.23,0.24,0.49,0.19,0.75-0.21c2.26-2.77,3.43-4.7,3.54-5.63       C222.1,165.95,221.16,164.97,219.2,163.22z"
   class="st0" />
				</g>
			</g>
			<g
   id="g56">
				<g
   id="g54">
					<path
   id="path52"
   d="M128.35,118.99c2.94,0.37,4.7-1.79,5.27-6.46c0.36-2.92-0.38-4.49-2.2-4.72       c-0.58-0.07-1.23,0.23-1.94,0.91c-0.72,0.68-1.14,1.52-1.26,2.52c-1.5,1.52-2.33,2.96-2.5,4.31       C125.47,117.59,126.35,118.74,128.35,118.99z M127.32,114.17c0.06-0.48,0.28-1,0.67-1.56c0.27-0.37,0.54-0.72,0.81-1.06       c0.41-0.03,0.77-0.03,1.08,0.01c1.51,0.19,2.33,1.12,2.44,2.8c-1.51,0.87-2.84,1.23-4,1.08       C127.55,115.36,127.22,114.93,127.32,114.17z"
   class="st0" />
				</g>
			</g>
			<g
   id="g62">
				<g
   id="g60">
					<path
   id="path58"
   d="M286.16,141.97c0.05,0.01,0.07,0.08,0.07,0.22c-0.01,0.14,0.02,0.23,0.09,0.25       c0.34,0.1,0.57,0.1,0.69,0.02c0.12-0.08,0.23-0.17,0.35-0.27c0.28-0.81,0.36-1.28,0.25-1.42c-0.19-0.31-0.48-0.49-0.87-0.54       c-0.58-0.07-1.16,0.17-1.75,0.74c-0.59,0.56-1.08,1.3-1.47,2.2c0.14,0.63,0.34,1.03,0.6,1.21c0.32,0.11,0.65,0.22,0.97,0.34       c-1.07,0.64-1.63,1.12-1.67,1.43c-0.01,0.11,0.06,0.18,0.21,0.22c0.12,0.05,0.31,0.06,0.58,0.02c0.51-0.35,1.38-0.71,2.61-1.07       c1.09-0.35,1.85-0.72,2.27-1.12c0.42-0.4,0.66-0.83,0.72-1.31c0.02-0.16-0.02-0.25-0.13-0.26c-0.04,0-0.08,0-0.13,0.01       c-0.19,0.08-0.59,0.29-1.2,0.6c-0.44,0.25-0.93,0.43-1.45,0.55c-0.32-0.11-0.65-0.22-0.97-0.34c-0.39-0.17-0.76-0.49-1.11-0.95       C284.89,142.15,285.33,141.97,286.16,141.97z"
   class="st0" />
				</g>
			</g>
			<g
   id="g68">
				<g
   id="g66">
					<path
   id="path64"
   d="M316.88,113.11c-1.15-1.24-2.05,0.06-3,0.57c-0.34,0.18-14.67,7.1-21.39,10.58       c-1.55,0.8-3.1,2.25-3.86,3.8c-1.15,2.36-1.34,5.07-0.27,7.67c0.13,0.33,0.36,0.68,0.65,0.86c3.88,2.52,7.3,5.51,9.73,9.55       c1.14,1.9,0.91,2.75-1.28,3.16c-1.77,0.33-10.61,1.17-14.85,1.53c-20.03,1.32-35.59-0.63-55.74-6.47       c-0.88-1.61-2.16-3.01-3.54-4.35c-0.83-0.81-1.83-0.45-2.02,0.62c-0.45,2.48-2.04,5.13,0.74,7.29c-2.79,2.86-6.29,3.6-9.83,4.1       c-1.59,0.23-3.47,0.54-4.81-0.08c-3.14-1.45-5.28-3.95-5.91-7.62c-1.02-5.93-2.16-11.84-3.39-17.73       c-0.46-2.2-1.26-4.34-2.04-6.47c-0.33-0.9-1.35-1.65-1.96-0.54c-1.06,1.91-1.88,4.05-1.13,6.33       c2.43,7.38,3.78,14.98,4.83,22.66c3.5,15.99,18.47,9.2,22.21,5.98c0.75-0.65,2.86-1.94,4.76-3.19       c17.95,5.8,37.96,7.66,60.01,5.52c1.88-0.24,3.91-0.49,5.94-0.8c0-0.01,0-0.02,0-0.03c3.06-0.55,8.66-2.11,11.5-6.46       c1.07-1.71,1.89-3.86,0.69-5.9c-1.3-2.22-2.76-4.36-4.29-6.43c-1.68-2.29-3.5-4.49-5.21-6.65c-0.16-0.21-0.1-0.51,0.14-0.63       c3.24-1.62,6.93-3.5,10.66-5.29c2.61-1.25,5.28-2.35,7.93-3.52c0.4-0.18,0.85-0.35,1.2-0.5       C317.93,118.62,318,114.32,316.88,113.11z"
   class="st0" />
				</g>
			</g>
			<g
   id="g74">
				<g
   id="g72">
					<path
   id="path70"
   d="M180.25,152.87c-2.15,4.07-4.07,8.27-6,12.45c-1.65,3.57-4.94,2.71-7.16,1.39       c-1.39-0.83-1.78-2.04-1.4-3.6c0.23-0.95,0.52-1.93,0.46-2.91c-0.09-1.3-2.89-0.39-4.11,4.94c-0.35,2.21-0.06,4.51,1.59,6.66       c3.3,3.84,8.38,4.34,11.04-0.41c1.69-3.01,3.12-6.19,4.55-9.35c1.53-3.39,2.71-6.94,5.66-9.5c1.89-1.64,3.19-1.89,4.38-0.34       c0.25,0.32,0.3,0.9,0.25,1.34c-0.08,0.75-0.3,1.49-0.46,2.24c0.11,0.07,7.58-3.8,6.63-10.24       C195.29,143.39,185.84,143.77,180.25,152.87z"
   class="st0" />
				</g>
			</g>
			<g
   id="g80">
				<g
   id="g78">
					<path
   id="path76"
   d="M177.06,145.41c-0.21-3.79-1.36-7.33-4.7-9.71c-1.09-0.78-1.82-0.58-2.32,0.56       c-0.44,0.99-0.62,2.12-1.16,3.04c-0.6,1.02-0.18,1.55,0.42,2.3c1.12,1.39,2.13,2.88,3.1,4.38c0.56,0.86,0.2,1.66-0.77,1.7       c-2.75,0.13-5.51,0.15-8.26,0.05c-0.43-0.02-1.04-0.81-1.2-1.35c-0.53-1.84-0.71-3.79-1.38-5.57       c-0.42-1.12-1.32-2.52-2.31-2.84c-1.32-0.43-1.52,1.32-2.03,2.27c-0.2,0.36-0.3,0.78-0.5,1.14       c-7.25,8.04-15.11,8.75-18.29,9.55c-5.7,1.43-11.38,1.27-17.12-0.08c-8.32-1.96-10.78-9.51-8.66-16.24       c0.5-1.58,0.93-3.2,1.24-4.83c0.09-0.48-0.37-1.05-0.57-1.59c-0.35,0.3-0.88,0.54-1.02,0.92c-1.24,3.51-2.86,6.97-3.49,10.6       c-0.91,5.18,0.07,10.2,3.98,14.12c2.81,2.81,6.45,3.98,10.28,4.57c5.21,0.81,10.32,0.37,15.46-0.86       c5.72-1.38,10.8-3.94,15.42-7.47c1.31-1,2.23-2.54,3.69-4.25c0.38,1.47,0.66,2.59,0.97,3.71c0.45,1.63,0.55,3.65,2.45,4.22       C163.61,154.74,175.19,154.51,177.06,145.41z"
   class="st0" />
				</g>
			</g>
			<g
   id="g86">
				<g
   id="g84">
					<path
   id="path82"
   d="M223.18,122.99c-0.05,0.43-0.7,1.31-1.93,2.65c-1.4,1.52-2.67,2.59-3.85,3.23c-0.73,0.4-3.1,0.87-7.1,1.42       c-0.7,0.11-1.04,0.12-1.05,0.06c0.08-0.06,0.34-0.23,0.82-0.51c0.55-0.32,2.01-0.95,4.41-1.85c2.3-0.89,3.64-1.48,4.04-1.78       c0.08-0.04,0.14-0.11,0.14-0.18c0.06-0.51-1.85-1.02-5.67-1.49c0,0-0.75-0.04-2.22-0.18c-0.67-0.06-1.03-0.13-1.01-0.27       c0.01-0.07,0.11-0.28,0.34-0.57l1.62-2.13c0.49-0.63,1.28-0.95,2.33-1.01c0.42-0.02,1.31,0.07,2.7,0.24       C221.14,121.16,223.3,121.97,223.18,122.99L223.18,122.99z"
   class="st0" />
				</g>
			</g>
		</g>
		<g
   id="g138">
			<g
   id="g94">
				<g
   id="g92">
					<path
   id="path90"
   d="M243.23,161.23l-2.12,6.42l2.32,7.8h-3.82l-1.5-6.09v6.09h-3.7v-14.22h3.7v5.52l1.65-5.52H243.23z"
   class="st0" />
				</g>
			</g>
			<g
   id="g100">
				<g
   id="g98">
					<path
   id="path96"
   d="M247.14,168.31h-3.33v-0.78c0-0.9,0.1-1.6,0.31-2.09c0.21-0.49,0.62-0.92,1.25-1.3s1.44-0.56,2.44-0.56       c1.2,0,2.1,0.21,2.71,0.64c0.61,0.42,0.97,0.95,1.1,1.56c0.12,0.62,0.18,1.89,0.18,3.82v5.85h-3.45v-1.04       c-0.22,0.42-0.5,0.73-0.84,0.94c-0.34,0.21-0.75,0.31-1.23,0.31c-0.62,0-1.19-0.17-1.71-0.52c-0.52-0.35-0.78-1.11-0.78-2.29       v-0.96c0-0.87,0.14-1.47,0.41-1.78c0.28-0.32,0.96-0.68,2.05-1.11c1.17-0.46,1.79-0.76,1.87-0.92       c0.08-0.16,0.12-0.48,0.12-0.97c0-0.61-0.05-1.01-0.14-1.19c-0.09-0.18-0.24-0.28-0.45-0.28c-0.24,0-0.39,0.08-0.45,0.23       c-0.06,0.16-0.09,0.56-0.09,1.21V168.31z M248.26,169.91c-0.57,0.42-0.9,0.76-0.99,1.04c-0.09,0.28-0.14,0.69-0.14,1.21       c0,0.6,0.04,0.99,0.12,1.17c0.08,0.18,0.24,0.26,0.47,0.26c0.22,0,0.37-0.07,0.44-0.21c0.07-0.14,0.1-0.5,0.1-1.08V169.91z"
   class="st0" />
				</g>
			</g>
			<g
   id="g106">
				<g
   id="g104">
					<path
   id="path102"
   d="M256.58,161.23v3.37c0.29-0.34,0.62-0.59,0.98-0.76c0.36-0.17,0.75-0.25,1.17-0.25       c0.49,0,0.91,0.08,1.26,0.23c0.36,0.15,0.63,0.37,0.82,0.64c0.19,0.28,0.3,0.54,0.34,0.81c0.04,0.26,0.06,0.83,0.06,1.69v5.25       c0,0.85-0.06,1.49-0.17,1.91c-0.11,0.42-0.38,0.78-0.8,1.09c-0.42,0.31-0.92,0.46-1.5,0.46c-0.42,0-0.8-0.09-1.16-0.27       c-0.36-0.18-0.69-0.45-0.99-0.82l-0.23,0.88h-3.32v-14.22H256.58z M257.66,167.11c0-0.6-0.04-1-0.11-1.18       c-0.08-0.18-0.23-0.28-0.45-0.28c-0.22,0-0.36,0.08-0.42,0.24c-0.06,0.16-0.1,0.57-0.1,1.22v5.02c0,0.63,0.04,1.03,0.11,1.2       c0.07,0.18,0.22,0.26,0.43,0.26c0.22,0,0.37-0.09,0.43-0.27c0.07-0.18,0.1-0.62,0.1-1.31V167.11z"
   class="st0" />
				</g>
			</g>
			<g
   id="g112">
				<g
   id="g110">
					<path
   id="path108"
   d="M265.54,168.31h-3.33v-0.78c0-0.9,0.1-1.6,0.31-2.09c0.21-0.49,0.62-0.92,1.25-1.3       c0.63-0.37,1.44-0.56,2.44-0.56c1.2,0,2.1,0.21,2.71,0.64c0.61,0.42,0.97,0.95,1.1,1.56c0.12,0.62,0.18,1.89,0.18,3.82v5.85       h-3.45v-1.04c-0.22,0.42-0.5,0.73-0.84,0.94c-0.34,0.21-0.75,0.31-1.23,0.31c-0.62,0-1.19-0.17-1.71-0.52s-0.78-1.11-0.78-2.29       v-0.96c0-0.87,0.14-1.47,0.41-1.78c0.28-0.32,0.96-0.68,2.05-1.11c1.17-0.46,1.79-0.76,1.87-0.92       c0.08-0.16,0.12-0.48,0.12-0.97c0-0.61-0.05-1.01-0.14-1.19c-0.09-0.18-0.24-0.28-0.45-0.28c-0.24,0-0.39,0.08-0.45,0.23       c-0.06,0.16-0.09,0.56-0.09,1.21V168.31z M266.67,169.91c-0.57,0.42-0.9,0.76-0.99,1.04c-0.09,0.28-0.14,0.69-0.14,1.21       c0,0.6,0.04,0.99,0.12,1.17c0.08,0.18,0.24,0.26,0.47,0.26c0.22,0,0.37-0.07,0.44-0.21c0.07-0.14,0.1-0.5,0.1-1.08V169.91z"
   class="st0" />
				</g>
			</g>
			<g
   id="g118">
				<g
   id="g116">
					<path
   id="path114"
   d="M274.98,163.8l-0.14,1.53c0.51-1.1,1.26-1.68,2.24-1.74v4.1c-0.65,0-1.13,0.09-1.43,0.26       c-0.3,0.18-0.49,0.42-0.56,0.73c-0.07,0.31-0.11,1.03-0.11,2.16v4.6h-3.55V163.8H274.98z"
   class="st0" />
				</g>
			</g>
			<g
   id="g124">
				<g
   id="g122">
					<path
   id="path120"
   d="M285.91,169.83h-4.59v2.52c0,0.53,0.04,0.87,0.11,1.02c0.08,0.15,0.22,0.23,0.44,0.23       c0.27,0,0.45-0.1,0.54-0.3c0.09-0.2,0.14-0.59,0.14-1.17v-1.54h3.36v0.86c0,0.72-0.05,1.27-0.14,1.66       c-0.09,0.39-0.3,0.8-0.64,1.24c-0.33,0.44-0.76,0.77-1.27,0.99c-0.51,0.22-1.15,0.33-1.93,0.33c-0.75,0-1.41-0.11-1.99-0.33       c-0.57-0.22-1.02-0.51-1.34-0.89c-0.32-0.38-0.54-0.79-0.66-1.25c-0.12-0.45-0.18-1.11-0.18-1.98v-3.4       c0-1.02,0.14-1.82,0.41-2.41c0.28-0.59,0.73-1.04,1.35-1.35c0.63-0.31,1.35-0.47,2.16-0.47c1,0,1.82,0.19,2.46,0.57       s1.1,0.88,1.36,1.5c0.26,0.62,0.39,1.5,0.39,2.63V169.83z M282.35,167.94v-0.85c0-0.6-0.03-0.99-0.1-1.17       c-0.06-0.18-0.2-0.26-0.4-0.26c-0.25,0-0.4,0.07-0.46,0.22c-0.06,0.15-0.09,0.55-0.09,1.21v0.85H282.35z"
   class="st0" />
				</g>
			</g>
			<g
   id="g130">
				<g
   id="g128">
					<path
   id="path126"
   d="M295.1,169.83h-4.59v2.52c0,0.53,0.04,0.87,0.11,1.02c0.08,0.15,0.22,0.23,0.44,0.23       c0.27,0,0.45-0.1,0.54-0.3c0.09-0.2,0.14-0.59,0.14-1.17v-1.54h3.36v0.86c0,0.72-0.05,1.27-0.14,1.66       c-0.09,0.39-0.3,0.8-0.64,1.24c-0.33,0.44-0.76,0.77-1.27,0.99c-0.51,0.22-1.15,0.33-1.93,0.33c-0.75,0-1.41-0.11-1.99-0.33       c-0.57-0.22-1.02-0.51-1.34-0.89c-0.32-0.38-0.54-0.79-0.66-1.25c-0.12-0.45-0.18-1.11-0.18-1.98v-3.4       c0-1.02,0.14-1.82,0.41-2.41c0.28-0.59,0.73-1.04,1.35-1.35c0.63-0.31,1.35-0.47,2.16-0.47c1,0,1.82,0.19,2.46,0.57       c0.65,0.38,1.1,0.88,1.36,1.5c0.26,0.62,0.39,1.5,0.39,2.63V169.83z M291.55,167.94v-0.85c0-0.6-0.03-0.99-0.1-1.17       c-0.06-0.18-0.2-0.26-0.4-0.26c-0.25,0-0.4,0.07-0.46,0.22c-0.06,0.15-0.09,0.55-0.09,1.21v0.85H291.55z"
   class="st0" />
				</g>
			</g>
			<g
   id="g136">
				<g
   id="g134">
					<path
   id="path132"
   d="M300,162.24v1.84h0.96v1.84H300v6.24c0,0.77,0.04,1.19,0.12,1.28c0.08,0.09,0.41,0.13,0.99,0.13v1.88       h-1.43c-0.81,0-1.38-0.03-1.73-0.1c-0.34-0.07-0.65-0.22-0.91-0.47c-0.26-0.24-0.43-0.52-0.49-0.83       c-0.06-0.31-0.1-1.05-0.1-2.21v-5.92h-0.76v-1.84h0.76v-1.84H300z"
   class="st0" />
				</g>
			</g>
		</g>
	</g>
	<g
   id="g146">
		<g
   id="g144">
			<path
   id="path142"
   d="M212.6,272.71c-72.23,0-130.99-58.76-130.99-130.99c0-72.22,58.76-130.98,130.99-130.98     c72.22,0,130.98,58.76,130.98,130.98C343.58,213.96,284.82,272.71,212.6,272.71z M212.6,16.74c-68.92,0-125,56.07-125,124.99     s56.07,125,125,125s124.99-56.07,124.99-125S281.52,16.74,212.6,16.74z"
   class="st0" />
		</g>
	</g>
</g>
</svg>